<svg width="16" height="16" viewBox="0 0 16 16" fill="none" xmlns="http://www.w3.org/2000/svg">
<path d="M1 10H15V12.6667C15 12.8435 14.9298 13.0131 14.8047 13.1381C14.6797 13.2631 14.5101 13.3333 14.3333 13.3333H1.66667C1.48986 13.3333 1.32029 13.2631 1.19526 13.1381C1.07024 13.0131 1 12.8435 1 12.6667V10Z" stroke="black" stroke-width="1.5" stroke-linecap="round" stroke-linejoin="round"/>
<path d="M2.33333 10V5.33333C2.33333 5.15652 2.40357 4.98695 2.5286 4.86193C2.65362 4.7369 2.82319 4.66667 3 4.66667H13C13.1768 4.66667 13.3464 4.7369 13.4714 4.86193C13.5964 4.98695 13.6667 5.15652 13.6667 5.33333V10" stroke="black" stroke-width="1.5" stroke-linecap="round" stroke-linejoin="round"/>
<path d="M3.66667 7.33333H4.33333" stroke="black" stroke-width="1.5" stroke-linecap="round" stroke-linejoin="round"/>
<path d="M11.6667 7.33333H12.3333" stroke="black" stroke-width="1.5" stroke-linecap="round" stroke-linejoin="round"/>
<path d="M3.66667 13.3333V14.6667" stroke="black" stroke-width="1.5" stroke-linecap="round" stroke-linejoin="round"/>
<path d="M12.3333 13.3333V14.6667" stroke="black" stroke-width="1.5" stroke-linecap="round" stroke-linejoin="round"/>
<path d="M1 10L2.33333 6.66667" stroke="black" stroke-width="1.5" stroke-linecap="round" stroke-linejoin="round"/>
<path d="M15 10L13.6667 6.66667" stroke="black" stroke-width="1.5" stroke-linecap="round" stroke-linejoin="round"/>
</svg> 