<svg width="20" height="20" viewBox="0 0 20 20" fill="none" xmlns="http://www.w3.org/2000/svg">
<path d="M10 0C4.48 0 0 4.48 0 10C0 15.52 4.48 20 10 20C15.52 20 20 15.52 20 10C20 4.48 15.52 0 10 0ZM10 18C5.58 18 2 14.42 2 10C2 5.58 5.58 2 10 2C14.42 2 18 5.58 18 10C18 14.42 14.42 18 10 18ZM11 5H8.5C7.67 5 7 5.67 7 6.5V7.5C7 8.33 7.67 9 8.5 9H11.5C12.33 9 13 9.67 13 10.5V11.5C13 12.33 12.33 13 11.5 13H8C7.45 13 7 12.55 7 12V11H5V12C5 13.66 6.34 15 8 15H11C12.66 15 14 13.66 14 12V10.5C14 8.84 12.66 7.5 11 7.5H8.5C8.22 7.5 8 7.28 8 7V6.5C8 6.22 8.22 6 8.5 6H12C12.55 6 13 6.45 13 7V8H15V7C15 5.34 13.66 4 12 4H11V5Z" fill="black"/>
</svg> 