<svg width="16" height="16" viewBox="0 0 16 16" fill="none" xmlns="http://www.w3.org/2000/svg">
<path d="M13.3333 8V14.6667H2.66667V8M0.666667 4.66667H15.3333V8H0.666667V4.66667ZM8 14.6667V4.66667M8 4.66667H5.16667C4.72464 4.66667 4.30072 4.49107 3.98816 4.17851C3.67559 3.86595 3.5 3.44203 3.5 3C3.5 2.55797 3.67559 2.13405 3.98816 1.82149C4.30072 1.50893 4.72464 1.33333 5.16667 1.33333C7.16667 1.33333 8 4.66667 8 4.66667ZM8 4.66667H10.8333C11.2754 4.66667 11.6993 4.49107 12.0118 4.17851C12.3244 3.86595 12.5 3.44203 12.5 3C12.5 2.55797 12.3244 2.13405 12.0118 1.82149C11.6993 1.50893 11.2754 1.33333 10.8333 1.33333C8.83333 1.33333 8 4.66667 8 4.66667Z" stroke="black" stroke-width="1.5" stroke-linecap="round" stroke-linejoin="round"/>
</svg> 