<svg width="30" height="24" viewBox="0 0 30 24" fill="none" xmlns="http://www.w3.org/2000/svg">
  <path d="M26.25 0H3.75C1.67969 0 0 1.67969 0 3.75V18.75C0 20.8203 1.67969 22.5 3.75 22.5H11.25L15 26.25L18.75 22.5H26.25C28.3203 22.5 30 20.8203 30 18.75V3.75C30 1.67969 28.3203 0 26.25 0ZM7.5 13.125C6.33984 13.125 5.625 12.1641 5.625 11.25C5.625 10.3359 6.33984 9.375 7.5 9.375C8.41406 9.375 9.375 10.3359 9.375 11.25C9.375 12.1641 8.41406 13.125 7.5 13.125ZM15 13.125C13.8398 13.125 13.125 12.1641 13.125 11.25C13.125 10.3359 13.8398 9.375 15 9.375C15.9141 9.375 16.875 10.3359 16.875 11.25C16.875 12.1641 15.9141 13.125 15 13.125ZM22.5 13.125C21.3398 13.125 20.625 12.1641 20.625 11.25C20.625 10.3359 21.3398 9.375 22.5 9.375C23.4141 9.375 24.375 10.3359 24.375 11.25C24.375 12.1641 23.4141 13.125 22.5 13.125Z" fill="black"/>
</svg> 