<svg width="12" height="16" viewBox="0 0 12 16" fill="none" xmlns="http://www.w3.org/2000/svg">
<path d="M10.49 11.913C9.34537 12.4631 8.06362 12.6429 6.81157 12.4259C5.55952 12.2088 4.40486 11.6055 3.52325 10.7032C2.64163 9.80099 2.07399 8.6316 1.8884 7.37334C1.70281 6.11507 1.91107 4.83624 2.48249 3.704C1.38327 4.33313 0.501597 5.25941 0.00668334 6.36653C-0.48823 7.47365 -0.0769894 8.68397 0.0682392 9.84465C0.213468 11.0053 0.649673 12.1591 1.36937 13.1002C2.08907 14.0413 3.05984 14.7287 4.15801 15.0681C5.25617 15.4075 6.42728 15.3834 7.50847 15C8.58966 14.6166 9.52344 13.8919 10.1947 12.9262C10.3144 12.7384 10.4242 12.5448 10.5234 12.3465C10.5209 12.2089 10.5117 12.059 10.49 11.913Z" stroke="black" stroke-linecap="round" stroke-linejoin="round"/>
</svg> 