<svg width="16" height="16" viewBox="0 0 16 16" fill="none" xmlns="http://www.w3.org/2000/svg">
<path d="M8 10C10.2091 10 12 8.20914 12 6C12 3.79086 10.2091 2 8 2C5.79086 2 4 3.79086 4 6C4 8.20914 5.79086 10 8 10Z" stroke="black" stroke-linecap="round" stroke-linejoin="round"/>
<path d="M2.90527 12.4L3.72527 14.2C3.80055 14.3501 3.91434 14.4766 4.05534 14.5674C4.19635 14.6582 4.35956 14.7101 4.52827 14.718C4.69698 14.7258 4.86516 14.6893 5.01453 14.6122C5.1639 14.5351 5.28955 14.4199 5.37827 14.2778L5.99327 13.2889C6.06981 13.1662 6.17998 13.0655 6.31168 12.9971C6.44338 12.9288 6.59249 12.8951 6.74327 12.9L9.25327 12.9C9.40409 12.8952 9.55324 12.9289 9.68499 12.9972C9.81674 13.0656 9.92696 13.1663 10.0033 13.2889L10.6183 14.2778C10.707 14.4199 10.8326 14.5351 10.982 14.6122C11.1314 14.6893 11.2995 14.7258 11.4683 14.718C11.637 14.7101 11.8002 14.6582 11.9412 14.5674C12.0822 14.4766 12.196 14.3501 12.2713 14.2L13.0913 12.4C13.1629 12.2581 13.1973 12.1007 13.1918 11.9422C13.1862 11.7837 13.1409 11.6294 13.0598 11.493C12.9787 11.3566 12.8643 11.2422 12.7272 11.1618C12.5901 11.0815 12.4352 11.0374 12.2763 11.0333L3.71827 11.0333C3.55994 11.0383 3.40579 11.0827 3.26947 11.1631C3.13315 11.2434 3.01937 11.3574 2.93851 11.4934C2.85765 11.6294 2.81225 11.7831 2.8064 11.9411C2.80054 12.0991 2.83439 12.256 2.90527 12.3978V12.4Z" stroke="black" stroke-linecap="round" stroke-linejoin="round"/>
</svg> 