<svg width="14" height="16" viewBox="0 0 14 16" fill="none" xmlns="http://www.w3.org/2000/svg">
<path d="M6.93798 15C8.00532 15 8.86985 14.1046 8.86985 13H5.00611C5.00611 14.1046 5.87064 15 6.93798 15Z" stroke="black" stroke-linecap="round" stroke-linejoin="round"/>
<path d="M12.2375 11.5H1.63843C1.27452 11.5 0.925755 11.342 0.67183 11.0607C0.417904 10.7794 0.281479 10.3978 0.300323 10.0062C0.319168 9.61454 0.491086 9.24978 0.77282 8.99555L1.06876 8.73417C1.27061 8.55417 1.38376 8.28861 1.38376 8.01028V5.5C1.38376 2.73858 3.5349 0.5 6.18298 0.5H7.69343C10.3415 0.5 12.4926 2.73858 12.4926 5.5V8.01028C12.4926 8.28861 12.6058 8.55417 12.8076 8.73417L13.1036 8.99555C13.3853 9.24978 13.5572 9.61454 13.5761 10.0062C13.5949 10.3978 13.4585 10.7794 13.2046 11.0607C12.9506 11.342 12.6019 11.5 12.238 11.5H12.2375Z" stroke="black" stroke-linecap="round" stroke-linejoin="round"/>
</svg> 