<svg width="17" height="17" viewBox="0 0 17 17" fill="none" xmlns="http://www.w3.org/2000/svg">
<path d="M8.5 10.625C9.67259 10.625 10.625 9.67259 10.625 8.5C10.625 7.32741 9.67259 6.375 8.5 6.375C7.32741 6.375 6.375 7.32741 6.375 8.5C6.375 9.67259 7.32741 10.625 8.5 10.625Z" stroke="black" stroke-linecap="round" stroke-linejoin="round"/>
<path d="M13.8125 10.625C13.7058 10.8653 13.6682 11.1327 13.7045 11.3949C13.7408 11.657 13.8495 11.9023 14.0175 12.1033L14.0672 12.1531C14.2042 12.2899 14.3136 12.4523 14.3896 12.6315C14.4656 12.8107 14.5069 13.0034 14.5112 13.1988C14.5155 13.3942 14.4829 13.5884 14.415 13.7707C14.3471 13.953 14.2452 14.1204 14.1146 14.2636C13.984 14.4068 13.8271 14.5229 13.6533 14.6055C13.4794 14.6881 13.2918 14.7356 13.1008 14.7452C12.9097 14.7548 12.7184 14.7264 12.5374 14.6616C12.3564 14.5968 12.1896 14.4968 12.0471 14.3672L11.9973 14.3175C11.7964 14.1495 11.551 14.0408 11.2889 14.0045C11.0267 13.9682 10.7594 14.0058 10.5191 14.1125C10.2826 14.2145 10.0796 14.3834 9.93246 14.5989C9.78531 14.8144 9.70047 15.0676 9.6875 15.3288V15.4375C9.6875 15.8341 9.53051 16.2145 9.25164 16.4934C8.97277 16.7722 8.59242 16.9292 8.19584 16.9292C7.79925 16.9292 7.4189 16.7722 7.14004 16.4934C6.86117 16.2145 6.70417 15.8341 6.70417 15.4375V15.3622C6.68663 15.0949 6.59503 14.8371 6.44012 14.619C6.28522 14.401 6.07432 14.2321 5.83167 14.1337C5.59134 14.027 5.32401 13.9894 5.06188 14.0257C4.79974 14.062 4.55431 14.1707 4.35334 14.3387L4.3036 14.3884C4.16113 14.518 3.99426 14.618 3.81327 14.6828C3.63227 14.7476 3.44097 14.776 3.24993 14.7664C3.05889 14.7568 2.87127 14.7093 2.69742 14.6267C2.52358 14.5441 2.36667 14.428 2.23608 14.2848C2.10549 14.1416 2.00358 13.9742 1.93569 13.7919C1.86779 13.6096 1.83513 13.4154 1.83945 13.22C1.84377 13.0246 1.88513 12.8319 1.96113 12.6527C2.03713 12.4735 2.14653 12.3111 2.28352 12.1743L2.33327 12.1245C2.50129 11.9236 2.60996 11.6782 2.64628 11.4161C2.68259 11.1539 2.64493 10.8866 2.53834 10.6462C2.43633 10.4097 2.26738 10.2067 2.05189 10.0596C1.8364 9.9124 1.58324 9.82757 1.32209 9.8146H1.21345C0.816868 9.8146 0.43652 9.6576 0.157653 9.37873C-0.121214 9.09987 -0.278214 8.71952 -0.278214 8.32293C-0.278214 7.92635 -0.121214 7.546 0.157653 7.26713C0.43652 6.98826 0.816868 6.83126 1.21345 6.83126H1.28878C1.55604 6.81373 1.81378 6.72212 2.03183 6.56722C2.24988 6.41232 2.41885 6.20142 2.51717 5.95876C2.62376 5.71843 2.66142 5.4511 2.62511 5.18897C2.5888 4.92683 2.48013 4.6814 2.31209 4.48043L2.26236 4.4307C2.12537 4.29392 2.01597 4.13149 1.93997 3.95228C1.86397 3.77307 1.82261 3.58038 1.81829 3.38499C1.81397 3.18961 1.84663 2.99536 1.91453 2.81307C1.98242 2.63078 2.08433 2.46337 2.21492 2.32021C2.34551 2.17704 2.50242 2.06099 2.67626 1.97837C2.85011 1.89574 3.03772 1.84837 3.22876 1.83868C3.4198 1.82899 3.6111 1.857 3.7921 1.92181C3.97309 1.98662 4.13996 2.08662 4.28243 2.21626L4.33217 2.266C4.53314 2.43402 4.77857 2.54269 5.04071 2.579C5.30284 2.61532 5.57017 2.57766 5.8105 2.47106H5.86024C6.09674 2.36906 6.29975 2.2001 6.44686 1.98461C6.59396 1.76912 6.67878 1.51596 6.69176 1.25481V1.14618C6.69176 0.749592 6.84876 0.369244 7.12763 0.0903772C7.40649 -0.18849 7.78684 -0.34549 8.18343 -0.34549C8.58001 -0.34549 8.96036 -0.18849 9.23923 0.0903772C9.51809 0.369244 9.67509 0.749592 9.67509 1.14618V1.22151C9.68807 1.48266 9.77289 1.73582 9.92 1.95131C10.0671 2.1668 10.2701 2.33576 10.5066 2.43776C10.7469 2.54435 11.0143 2.58201 11.2764 2.5457C11.5386 2.50939 11.784 2.40072 11.985 2.23269L12.0347 2.18296C12.1772 2.05332 12.344 1.95332 12.525 1.88851C12.706 1.8237 12.8973 1.79569 13.0884 1.80538C13.2794 1.81507 13.467 1.86244 13.6409 1.94506C13.8147 2.02769 13.9716 2.14374 14.1022 2.28691C14.2328 2.43007 14.3347 2.59748 14.4026 2.77977C14.4705 2.96206 14.5032 3.15631 14.4988 3.35169C14.4945 3.54708 14.4532 3.73977 14.3772 3.91898C14.3011 4.09819 14.1918 4.26062 14.0548 4.3974L14.005 4.44713C13.837 4.6481 13.7283 4.89353 13.692 5.15567C13.6557 5.4178 13.6934 5.68513 13.8 5.92546V5.9752C13.902 6.2117 14.0709 6.41471 14.2864 6.56182C14.5019 6.70892 14.7551 6.79375 15.0162 6.80672H15.125C15.5216 6.80672 15.9019 6.96372 16.1808 7.24259C16.4597 7.52146 16.6167 7.9018 16.6167 8.29839C16.6167 8.69497 16.4597 9.07532 16.1808 9.35419C15.9019 9.63306 15.5216 9.79006 15.125 9.79006H15.0497C14.7885 9.80304 14.5354 9.88786 14.3199 10.035C14.1044 10.1821 13.9355 10.3851 13.8335 10.6216L13.8125 10.625Z" stroke="black" stroke-linecap="round" stroke-linejoin="round"/>
</svg> 