<svg width="16" height="16" viewBox="0 0 16 16" fill="none" xmlns="http://www.w3.org/2000/svg">
<path d="M8 15C11.866 15 15 11.866 15 8C15 4.13401 11.866 1 8 1C4.13401 1 1 4.13401 1 8C1 11.866 4.13401 15 8 15Z" stroke="black" stroke-linecap="round" stroke-linejoin="round"/>
<path d="M6.06055 6.00001C6.21709 5.55446 6.52568 5.17883 6.93323 4.93946C7.34077 4.70009 7.81946 4.61261 8.28483 4.69245C8.7502 4.77229 9.17238 5.01436 9.47704 5.3757C9.7817 5.73704 9.9537 6.19433 9.96055 6.67001C9.96055 8.00001 7.96055 8.67001 7.96055 8.67001" stroke="black" stroke-linecap="round" stroke-linejoin="round"/>
<path d="M8 11.3333H8.00667" stroke="black" stroke-linecap="round" stroke-linejoin="round"/>
</svg> 