<svg width="24" height="24" viewBox="0 0 24 24" fill="none" xmlns="http://www.w3.org/2000/svg">
<path d="M12.785 16.241s.288-.032.436-.193c.136-.148.131-.426.131-.426s-.019-1.302.574-1.494c.584-.189 1.334 1.258 2.129 1.815.602.421 1.06.329 1.06.329l2.127-.03s1.111-.07.584-.96c-.043-.073-.307-.659-1.577-1.863-1.33-1.26-1.152-1.056.45-3.229.976-1.323 1.366-2.13 1.243-2.476-.117-.331-.84-.244-.84-.244l-2.396.015s-.178-.025-.309.056c-.128.079-.21.263-.21.263s-.377.102-.66 1.25c-.659 1.467-1.118 1.541-1.248 1.449-.303-.214-.227-.86-.227-1.319 0-1.434.213-2.033-.416-2.188-.209-.051-.362-.085-.896-.091-.685-.007-1.266.003-1.594.166-.218.108-.387.35-.284.364.127.018.415.079.567.291.196.274.189.889.189.889s.113 1.687-.263 1.897c-.258.144-.612-.15-1.374-1.494-.39-1.136-.685-2.391-.685-2.391s-.057-.221-.158-.34c-.123-.144-.294-.19-.294-.19l-2.278.015s-.342.01-.467.161c-.111.134-.009.411-.009.411s1.777 4.245 3.785 6.38c1.843 1.96 3.933 1.832 3.933 1.832h.951z" fill="currentColor"/>
</svg>
